<svg width="13" height="26" viewBox="0 0 13 26" fill="none" xmlns="http://www.w3.org/2000/svg">
<path fill-rule="evenodd" clip-rule="evenodd" d="M3 12.625V24.75C3 24.875 3.125 25.125 3.375 25.125H8.25C8.5 25.125 8.625 25 8.625 24.75V12.5H12.125C12.25 12.5 12.5 12.375 12.5 12.25L12.875 8.5C12.875 8.25 12.75 8.125 12.5 8.125H8.625V5.5C8.625 4.875 9.125 4.375 9.875 4.375H12.625C12.875 4.375 13 4.25 13 4V0.375C12.75 0.125 12.625 0 12.375 0H7.875C5.25 0 3 2 3 4.5V8.125H0.625C0.375 8.125 0.25 8.25 0.25 8.5V12.25C0.25 12.375 0.375 12.625 0.625 12.625H3Z" fill="white"/>
</svg>
