<svg width="34" height="34" viewBox="0 0 34 34" fill="none" xmlns="http://www.w3.org/2000/svg">
<path d="M17.0001 0.75C14.1776 0.750762 11.404 1.48646 8.9522 2.88467C6.50042 4.28288 4.45497 6.29543 3.01717 8.72422C1.57938 11.153 0.798805 13.9143 0.752271 16.7364C0.705737 19.5585 1.39485 22.344 2.75178 24.8189L1.41634 29.4931C1.29382 29.9218 1.28817 30.3755 1.39999 30.8071C1.5118 31.2387 1.737 31.6325 2.05226 31.9478C2.36751 32.263 2.76134 32.4883 3.19293 32.6001C3.62453 32.7119 4.07818 32.7063 4.50686 32.5838L9.18124 31.2484C11.3535 32.4403 13.7695 33.1197 16.2446 33.2348C18.7197 33.3498 21.1883 32.8973 23.4617 31.9119C25.7351 30.9266 27.7531 29.4344 29.3614 27.5496C30.9697 25.6647 32.1257 23.437 32.741 21.0369C33.3563 18.6368 33.4146 16.1277 32.9116 13.7016C32.4085 11.2754 31.3573 8.99641 29.8384 7.03882C28.3195 5.08122 26.373 3.49687 24.1479 2.40689C21.9227 1.31691 19.4778 0.750173 17.0001 0.75ZM20.7695 27C20.7649 27.0037 20.7564 27 20.7498 27C18.9425 27 17.153 26.6437 15.4835 25.9515C13.814 25.2592 12.2974 24.2447 11.0203 22.9658C9.74329 21.687 8.73089 20.1689 8.04104 18.4984C7.35119 16.828 6.99743 15.0379 6.99999 13.2306C7.00568 11.7423 7.60076 10.3169 8.65498 9.2663C9.70919 8.21572 11.1367 7.62556 12.625 7.625C13.0351 7.62552 13.4378 7.73417 13.7925 7.94C14.1473 8.14582 14.4414 8.44155 14.6454 8.79734L16.4721 11.9944C16.6922 12.38 16.8057 12.8173 16.8009 13.2613C16.7962 13.7053 16.6735 14.14 16.4453 14.5209L15.3342 16.3727C15.8837 17.3254 16.6747 18.1164 17.6274 18.666L19.4791 17.5548C19.86 17.3266 20.2947 17.2038 20.7387 17.1991C21.1827 17.1943 21.62 17.3078 22.0057 17.5278L25.2025 19.3546C25.5584 19.5585 25.8541 19.8527 26.06 20.2074C26.2658 20.5621 26.3745 20.9649 26.375 21.375C26.3744 22.8633 25.7843 24.2907 24.7337 25.3449C23.6832 26.3991 22.2578 26.9942 20.7695 27Z" fill="black"/>
<path d="M18.3204 21.1654C18.1475 21.2692 17.9521 21.3296 17.7508 21.3415C17.5496 21.3534 17.3484 21.3164 17.1646 21.2336C15.2096 20.3554 13.6446 18.7904 12.7663 16.8354C12.6836 16.6516 12.6466 16.4504 12.6585 16.2491C12.6704 16.0479 12.7308 15.8525 12.8345 15.6796L14.3015 13.2345L12.5255 10.1265C11.717 10.1518 10.9498 10.4899 10.3855 11.0695C9.8212 11.6491 9.50376 12.425 9.50001 13.2339C9.49791 14.7126 9.78735 16.1773 10.3518 17.544C10.9162 18.9108 11.7445 20.1529 12.7894 21.1992C13.8343 22.2456 15.0752 23.0757 16.4411 23.642C17.8071 24.2084 19.2713 24.4999 20.75 24.4999H20.766C21.575 24.4962 22.3509 24.1787 22.9305 23.6144C23.5101 23.0501 23.8481 22.283 23.8735 21.4744L20.7654 19.6985L18.3204 21.1654Z" fill="black"/>
</svg>
